<svg width="32" height="37" viewBox="0 0 32 37" fill="none" xmlns="http://www.w3.org/2000/svg">
<path d="M0 9.25V27.75L15.6 37L31.2 27.75V9.25L15.6 0L0 9.25Z" fill="#FBC5B4"/>
<path d="M15.1614 18.3369C17.5711 18.3369 19.5312 15.7796 19.5312 13.3701C19.5312 10.9607 17.5712 9 15.1614 9C12.7517 9 10.7914 10.9607 10.7914 13.3701C10.7918 15.7793 12.7518 18.3369 15.1614 18.3369Z" fill="#090940"/>
<path d="M18.442 18.3813C17.5943 19.0271 16.537 19.4114 15.3916 19.4114H14.9315C13.7858 19.4114 12.7282 19.027 11.8808 18.3813C9.11332 18.8287 7 21.2276 7 24.1211C7 25.7107 10.654 26.9998 15.1616 26.9998C19.6691 26.9998 23.3231 25.7107 23.3231 24.1211C23.3231 21.2275 21.2095 18.8285 18.442 18.3813H18.442Z" fill="#090940"/>
</svg>
