<svg width="57" height="57" viewBox="0 0 57 57" fill="none" xmlns="http://www.w3.org/2000/svg">
<path d="M28.5 0L53.1817 14.25V42.75L28.5 57L3.81828 42.75V14.25L28.5 0Z" fill="#E0DEDC"/>
<path d="M24.3668 30.0504C24.3668 30.3357 24.1355 30.567 23.8502 30.567C23.5648 30.567 23.3335 30.3357 23.3335 30.0504C23.3335 29.765 23.5648 29.5337 23.8502 29.5337C24.1355 29.5337 24.3668 29.765 24.3668 30.0504Z" fill="#090940"/>
<path d="M21.7833 27.9835C21.7833 28.2688 21.552 28.5001 21.2667 28.5001C20.9814 28.5001 20.75 28.2688 20.75 27.9835C20.75 27.6981 20.9814 27.4668 21.2667 27.4668C21.552 27.4668 21.7833 27.6981 21.7833 27.9835Z" fill="#090940"/>
<path d="M22.9202 27.6737L21.3702 29.7404C21.1986 29.9687 21.2451 30.2928 21.4735 30.4637C21.5664 30.5334 21.6756 30.567 21.783 30.567C21.9401 30.567 22.0951 30.4958 22.1968 30.3604L23.7469 28.2937C23.9178 28.0653 23.8719 27.7413 23.6435 27.5703C23.4147 27.3987 23.0911 27.4458 22.9202 27.6737Z" fill="#090940"/>
<path d="M19.7165 22.8169C18.8619 22.8169 18.1665 23.5123 18.1665 24.3669C18.1665 25.2215 18.8619 25.9169 19.7165 25.9169C20.5711 25.9169 21.2665 25.2215 21.2665 24.3669C21.2665 23.5123 20.5711 22.8169 19.7165 22.8169ZM19.7165 24.8836C19.4319 24.8836 19.1999 24.6515 19.1999 24.3669C19.1999 24.0823 19.4319 23.8502 19.7165 23.8502C20.0012 23.8502 20.2332 24.0823 20.2332 24.3669C20.2332 24.6515 20.0012 24.8836 19.7165 24.8836Z" fill="#090940"/>
<path d="M34.7002 17.65C34.7002 17.3649 34.4693 17.1333 34.1835 17.1333H32.1168C31.831 17.1333 31.6001 17.3649 31.6001 17.65V18.1666H30.0501C29.893 18.1666 29.7447 18.2379 29.6467 18.3604L29.2963 18.7986C28.1146 17.7653 26.5729 17.1333 24.8834 17.1333C24.5983 17.1333 24.3667 17.3649 24.3667 17.65V23.8501C24.3667 24.1352 24.5983 24.3667 24.8834 24.3667C25.1685 24.3667 25.4 24.1352 25.4 23.8501V18.19C26.6426 18.3025 27.7684 18.8199 28.6514 19.6046L27.5798 20.9443C27.4015 21.1669 27.4377 21.4926 27.6603 21.6702C27.756 21.7463 27.8697 21.7834 27.9829 21.7834C28.1343 21.7834 28.2847 21.7172 28.3864 21.5897L29.3643 20.3667C30.0152 21.2021 30.4422 22.2206 30.5428 23.3334H26.95C26.6649 23.3334 26.4333 23.565 26.4333 23.8501C26.4333 24.1352 26.6649 24.3668 26.95 24.3668H31.0834C31.3692 24.3668 31.6001 24.1352 31.6001 23.8501C31.6001 22.2097 31.0075 20.7067 30.0272 19.5389L30.298 19.2H31.6001V19.7167C31.6001 20.0018 31.831 20.2334 32.1167 20.2334H34.1834C34.4692 20.2334 34.7001 20.0018 34.7001 19.7167L34.7002 17.65ZM33.6668 19.2H32.6335V18.1666H33.6668V19.2Z" fill="#090940"/>
<path d="M34.1834 21.2671H32.6334C32.3476 21.2671 32.1167 21.4987 32.1167 21.7838C32.1167 22.0689 32.3476 22.3004 32.6334 22.3004H34.1834C34.4692 22.3004 34.7001 22.0689 34.7001 21.7838C34.7001 21.4987 34.4692 21.2671 34.1834 21.2671Z" fill="#090940"/>
<path d="M34.1837 23.3335H33.6671C33.3813 23.3335 33.1504 23.5651 33.1504 23.8502C33.1504 24.1353 33.3813 24.3668 33.6671 24.3668H34.1837C34.4695 24.3668 34.7004 24.1353 34.7004 23.8502C34.7004 23.5651 34.4695 23.3335 34.1837 23.3335Z" fill="#090940"/>
<path d="M32.6336 25.917H31.0836C30.7978 25.917 30.5669 26.1486 30.5669 26.4337C30.5669 26.7188 30.7978 26.9503 31.0836 26.9503H32.6336C32.9194 26.9503 33.1503 26.7188 33.1503 26.4337C33.1503 26.1486 32.9194 25.917 32.6336 25.917Z" fill="#090940"/>
<path d="M32.6335 27.9834H31.6002C31.3144 27.9834 31.0835 28.215 31.0835 28.5001C31.0835 28.7852 31.3144 29.0167 31.6002 29.0167H32.6335C32.9193 29.0167 33.1502 28.7852 33.1502 28.5001C33.1502 28.215 32.9193 27.9834 32.6335 27.9834Z" fill="#090940"/>
<path d="M17.1334 17.65C17.1334 17.9353 16.9021 18.1666 16.6168 18.1666C16.3314 18.1666 16.1001 17.9353 16.1001 17.65C16.1001 17.3647 16.3314 17.1333 16.6168 17.1333C16.9021 17.1333 17.1334 17.3647 17.1334 17.65Z" fill="#090940"/>
<path d="M19.1999 17.65C19.1999 17.9353 18.9685 18.1666 18.6832 18.1666C18.3979 18.1666 18.1665 17.9353 18.1665 17.65C18.1665 17.3647 18.3979 17.1333 18.6832 17.1333C18.9685 17.1333 19.1999 17.3647 19.1999 17.65Z" fill="#090940"/>
<path d="M21.2667 17.65C21.2667 17.9353 21.0354 18.1666 20.7501 18.1666C20.4648 18.1666 20.2334 17.9353 20.2334 17.65C20.2334 17.3647 20.4648 17.1333 20.7501 17.1333C21.0354 17.1333 21.2667 17.3647 21.2667 17.65Z" fill="#090940"/>
<path d="M17.1334 32.1168C17.1334 32.4021 16.9021 32.6334 16.6168 32.6334C16.3314 32.6334 16.1001 32.4021 16.1001 32.1168C16.1001 31.8314 16.3314 31.6001 16.6168 31.6001C16.9021 31.6001 17.1334 31.8314 17.1334 32.1168Z" fill="#090940"/>
<path d="M31.0836 33.2295V30.567C31.0836 29.7124 30.3881 29.017 29.5335 29.017C29.1693 29.017 28.8385 29.1487 28.5735 29.3595C29.1785 28.3515 29.5335 27.1761 29.5335 25.9169C29.5335 25.6318 29.3026 25.4002 29.0169 25.4002H23.3335V19.7168C23.3335 19.4317 23.1019 19.2001 22.8168 19.2001C19.1127 19.2001 16.1 22.2128 16.1 25.9169C16.1 27.007 16.3697 28.0931 16.8808 29.0573C17.0141 29.3094 17.3262 29.4052 17.5792 29.2723C17.8313 29.1385 17.9275 28.826 17.7942 28.5739C17.3555 27.7465 17.1334 26.852 17.1334 25.9169C17.1334 22.9569 19.4072 20.5186 22.3001 20.2569V25.9169C22.3001 26.202 22.5317 26.4336 22.8168 26.4336H28.4769C28.2151 29.3265 25.7764 31.6004 22.8168 31.6004C21.3821 31.6004 20.0088 31.0583 18.951 30.0741C18.7427 29.8803 18.4156 29.8912 18.221 30.1004C18.0267 30.3091 18.0385 30.6362 18.2472 30.8309C19.4972 31.9936 21.1201 32.6337 22.8168 32.6337C24.9393 32.6337 26.8319 31.6411 28.0636 30.0994C28.0161 30.2477 27.9835 30.4027 27.9835 30.567V33.667H15.0667V16.1001H35.7336V23.3335C35.7336 23.6186 35.9645 23.8502 36.2503 23.8502C36.5361 23.8502 36.767 23.6186 36.767 23.3335V16.005C37.3669 15.791 37.8003 15.2226 37.8003 14.55C37.8003 13.6954 37.1049 13 36.2503 13H32.1169C31.8311 13 31.6003 13.2316 31.6003 13.5167C31.6003 13.8018 31.8311 14.0333 32.1169 14.0333H36.2503C36.5354 14.0333 36.767 14.2654 36.767 14.55C36.767 14.8347 36.5354 15.0667 36.2503 15.0667H14.55C14.2654 15.0667 14.0333 14.8347 14.0333 14.55C14.0333 14.2654 14.2654 14.0333 14.55 14.0333H30.0502C30.336 14.0333 30.5669 13.8018 30.5669 13.5167C30.5669 13.2316 30.336 13 30.0502 13H14.55C13.6954 13 13 13.6954 13 14.55C13 15.2226 13.4329 15.791 14.0333 16.005V33.7627C13.4329 33.976 13 34.5444 13 35.217C13 36.0716 13.6954 36.767 14.55 36.767H19.2001C19.4852 36.767 19.7168 36.5354 19.7168 36.2503C19.7168 35.9652 19.4852 35.7336 19.2001 35.7336H14.55C14.2654 35.7336 14.0333 35.5016 14.0333 35.217C14.0333 34.9323 14.2654 34.7003 14.55 34.7003H28.0266C28.0938 35.077 28.2416 35.4287 28.4566 35.7336H21.2663C20.9812 35.7336 20.7496 35.9652 20.7496 36.2503C20.7496 36.5354 20.9812 36.767 21.2663 36.767H24.883V39.4454C24.2826 39.6592 23.8496 40.2275 23.8496 40.9004C23.8496 41.755 24.545 42.4504 25.3996 42.4504C26.2543 42.4504 26.9497 41.755 26.9497 40.9004C26.9497 40.2278 26.5163 39.6594 25.9163 39.4454V36.767H29.9614L32.381 37.5761L33.1498 38.0799V43.4838C33.1498 43.7689 33.3807 44.0004 33.6665 44.0004C33.9523 44.0004 34.1832 43.7689 34.1832 43.4838V37.8004C34.1832 37.6262 34.0953 37.4636 33.9497 37.3683L33.0869 36.8037L32.8398 35.0749L32.766 34.5573L33.5818 34.6932C33.6097 34.6983 33.6381 34.7003 33.6665 34.7003H34.779L35.2239 37.369C35.2507 37.5307 35.3531 37.6703 35.4988 37.7445C35.572 37.7817 35.6531 37.8004 35.7332 37.8004C35.8123 37.8004 35.8919 37.7824 35.9641 37.7462L37.2832 37.0862V43.4835C37.2832 43.7686 37.5141 44.0002 37.7999 44.0002C38.0857 44.0002 38.3166 43.7686 38.3166 43.4835V37.0862L39.6357 37.7454C39.7079 37.7823 39.7875 37.8003 39.8666 37.8003C39.9466 37.8003 40.0274 37.7817 40.1012 37.7441C40.247 37.6696 40.3491 37.5302 40.3761 37.3685L40.8137 34.7439C42.0329 34.9503 42.9667 36.0065 42.9667 37.2837V38.8337H41.4166V38.317C41.4166 38.032 41.1857 37.8004 40.9 37.8004C40.6142 37.8004 40.3833 38.032 40.3833 38.317V43.4838C40.3833 43.7689 40.6142 44.0005 40.9 44.0005C41.1857 44.0005 41.4166 43.7689 41.4166 43.4838V39.8671H42.9667V43.4838C42.9667 43.7689 43.1975 44.0005 43.4833 44.0005C43.7691 44.0005 44 43.7689 44 43.4838V37.2837C44 35.2895 42.3771 33.667 40.3833 33.667H40.3258C40.9982 33.0098 41.4166 32.0953 41.4166 31.0836V30.5669C41.4166 30.2818 41.1858 30.0503 40.9 30.0503C40.6142 30.0503 40.3833 30.2818 40.3833 30.5669V31.0836C40.3833 32.5082 39.2245 33.667 37.7999 33.667C36.3754 33.667 35.2166 32.5082 35.2166 31.0836V28.9714C35.8041 28.8677 36.3569 28.5902 36.7894 28.1743C37.4936 28.7207 38.3545 29.0169 39.2611 29.0169H40.9C41.1858 29.0169 41.4166 28.7853 41.4166 28.5002C41.4166 26.506 39.7938 24.8835 37.7999 24.8835H34.6999C34.4141 24.8835 34.1832 25.1151 34.1832 25.4002V31.0836C34.1832 32.0953 34.6016 33.0098 35.2733 33.667H33.7095L31.0836 33.2295ZM35.2169 25.9169H37.8003C39.0482 25.9169 40.0917 26.8061 40.3315 27.9836H39.2615C38.457 27.9836 37.7006 27.6706 37.1323 27.1015C37.0352 27.0044 36.9044 26.9502 36.7669 26.9502C36.6295 26.9502 36.4982 27.0044 36.4016 27.1015L36.0987 27.4044C35.8542 27.6489 35.5479 27.824 35.2167 27.9139L35.2169 25.9169ZM25.4001 41.4171C25.1155 41.4171 24.8835 41.1851 24.8835 40.9005C24.8835 40.6158 25.1155 40.3838 25.4001 40.3838C25.6848 40.3838 25.9168 40.6158 25.9168 40.9005C25.9168 41.1851 25.6848 41.4171 25.4001 41.4171ZM29.0169 30.567C29.0169 30.2824 29.2484 30.0503 29.5335 30.0503C29.8186 30.0503 30.0502 30.2824 30.0502 30.567V33.667C30.0502 33.9196 30.2327 34.135 30.4822 34.1765L31.6969 34.3791L31.9785 36.3516L30.0755 35.715C29.4421 35.5038 29.0168 34.9133 29.0168 34.2457L29.0169 30.567ZM38.7504 34.5696L37.8003 35.5199L36.8502 34.5698C37.1535 34.6524 37.4712 34.7004 37.8003 34.7004C38.1294 34.7004 38.4471 34.6524 38.7504 34.5696V34.5696ZM36.1283 36.5087L35.8886 35.0687L36.9282 36.1087L36.1283 36.5087ZM39.4724 36.5087L38.6725 36.1088L39.712 35.0688L39.4724 36.5087Z" fill="#090940"/>
<path d="M37.2838 30.567C37.2838 30.8523 37.0525 31.0836 36.7672 31.0836C36.4818 31.0836 36.2505 30.8523 36.2505 30.567C36.2505 30.2816 36.4818 30.0503 36.7672 30.0503C37.0525 30.0503 37.2838 30.2816 37.2838 30.567Z" fill="#090940"/>
<path d="M39.3502 30.567C39.3502 30.8523 39.1189 31.0836 38.8336 31.0836C38.5482 31.0836 38.3169 30.8523 38.3169 30.567C38.3169 30.2816 38.5482 30.0503 38.8336 30.0503C39.1189 30.0503 39.3502 30.2816 39.3502 30.567Z" fill="#090940"/>
</svg>
