<svg width="57" height="57" viewBox="0 0 57 57" fill="none" xmlns="http://www.w3.org/2000/svg">
<path d="M28.5 0L53.1817 14.25V42.75L28.5 57L3.81828 42.75V14.25L28.5 0Z" fill="#E0DEDC"/>
<path d="M15.6872 32.5973C15.6872 32.8328 15.4964 33.0236 15.2608 33.0236C15.0253 33.0236 14.8345 32.8328 14.8345 32.5973C14.8345 32.3617 15.0253 32.1709 15.2608 32.1709C15.4964 32.1709 15.6872 32.3617 15.6872 32.5973Z" fill="#090940"/>
<path d="M18.2448 32.5973C18.2448 32.8328 18.054 33.0236 17.8185 33.0236C17.5829 33.0236 17.3921 32.8328 17.3921 32.5973C17.3921 32.3617 17.5829 32.1709 17.8185 32.1709C18.054 32.1709 18.2448 32.3617 18.2448 32.5973Z" fill="#090940"/>
<path d="M19.4598 36.7713H19.0976C19.6448 36.2185 20.0386 35.5328 20.241 34.7816C20.6963 34.6826 21.0973 34.4148 21.3634 34.0321C21.6294 33.6494 21.7406 33.1804 21.6748 32.719C21.6089 32.2576 21.3708 31.8381 21.0084 31.5453C21.2926 29.9114 21.0858 28.6693 20.383 27.8547C19.8684 27.2829 19.1433 26.9454 18.3746 26.92C17.7784 26.4794 17.0721 26.2121 16.3336 26.1477C15.5954 26.083 14.8533 26.2238 14.1899 26.5545C12.2837 27.509 11.5561 29.1928 11.9916 31.5452C11.6291 31.8383 11.3913 32.2576 11.3256 32.7187C11.2599 33.1801 11.3713 33.6491 11.6375 34.0318C11.9037 34.4143 12.3048 34.6818 12.76 34.7804C12.9633 35.5349 13.36 36.2232 13.9107 36.7775C13.1671 36.8107 12.4755 37.1693 12.0199 37.7581H11.8915C11.4002 37.7564 10.9276 37.9464 10.5744 38.288C10.2211 38.6296 10.0155 39.0956 10.0008 39.5867C9.98635 40.078 10.164 40.5554 10.4965 40.9172L10.501 42.775C10.5013 43.0874 10.5957 43.3927 10.7721 43.6508C10.9482 43.9089 11.1982 44.1081 11.489 44.2223V45.2456H12.626V44.2223C12.9168 44.1081 13.1666 43.9091 13.3429 43.651C13.5191 43.3932 13.6135 43.0879 13.614 42.7754L13.6094 40.9182C13.9746 40.5205 14.1507 39.9845 14.0926 39.4475C14.0345 38.9107 13.7477 38.425 13.3059 38.1143C13.5237 37.9813 13.7739 37.9105 14.029 37.9098H14.1932L14.7203 38.828C14.9604 39.2483 15.3418 39.5703 15.7966 39.7365C16.2514 39.9027 16.7503 39.9027 17.2051 39.7365C17.6599 39.5703 18.0411 39.2482 18.2811 38.828L18.807 37.9083H19.4607V37.908C19.965 37.9088 20.4485 38.1095 20.805 38.4663C21.1616 38.8229 21.3618 39.3067 21.3623 39.8109L21.3664 45.2455H22.5034L22.4983 39.8109C22.4975 39.0051 22.177 38.2326 21.6075 37.6626C21.0377 37.0929 20.2655 36.7721 19.4596 36.771L19.4598 36.7713ZM12.0578 43.1952C11.9461 43.1952 11.8393 43.1505 11.7606 43.0716C11.6819 42.9926 11.638 42.8855 11.6383 42.7739L11.635 41.3669H12.4745V42.7752C12.4745 43.0059 12.2885 43.1934 12.0578 43.1952L12.0578 43.1952ZM12.7575 40.1707L12.7006 40.2276L11.4058 40.2278L11.3489 40.171C11.1401 39.9532 11.0815 39.632 11.1995 39.3543C11.3177 39.0769 11.59 38.8967 11.8918 38.8962H12.2141C12.5156 38.8967 12.7879 39.0767 12.9062 39.3541C13.0244 39.6315 12.966 39.9525 12.7574 40.1702L12.7575 40.1707ZM14.6995 27.5738C15.1977 27.3314 15.7542 27.2352 16.3047 27.2964C16.8552 27.3575 17.377 27.5735 17.8097 27.9194C17.9234 28.0169 18.0703 28.0661 18.2195 28.0565C18.7162 28.041 19.1949 28.2427 19.5306 28.609C19.9611 29.116 20.0918 29.9825 19.9245 31.1285C19.8971 31.1285 19.871 31.1199 19.8433 31.1199V30.6357C19.8433 30.3875 19.6821 30.168 19.4454 30.0933C18.8842 29.9284 18.3954 29.5787 18.0581 29.1008C17.9569 28.928 17.7719 28.8214 17.5716 28.8199H17.5676C17.3691 28.8199 17.1848 28.9231 17.0815 29.0929C16.7882 29.5767 15.0918 29.9764 13.6882 30.069C13.389 30.0888 13.1565 30.3375 13.1572 30.6375V31.1224C13.1248 31.1224 13.0941 31.1311 13.0623 31.1326C12.7837 29.385 13.2994 28.2731 14.6995 27.5737V27.5738ZM17.2935 38.2639V38.2641C17.1308 38.5489 16.828 38.7245 16.4999 38.7245C16.172 38.7245 15.8692 38.5489 15.7063 38.2641L15.5027 37.9083H17.497L17.2935 38.2639ZM16.4976 36.7711C15.1901 36.7711 14.0498 35.6711 13.7813 34.156H13.7815C13.7318 33.8578 13.4562 33.6518 13.1562 33.6888C12.9626 33.6944 12.7753 33.6213 12.6367 33.4863C12.4979 33.3515 12.4197 33.1663 12.4197 32.9729C12.4197 32.7792 12.4979 32.5942 12.6367 32.4592C12.7753 32.3245 12.9626 32.2514 13.1562 32.2567L13.2915 32.2539C13.4052 32.2539 13.5661 32.2443 13.6008 32.2437H13.6006C13.7686 32.28 13.944 32.2384 14.0777 32.1303C14.2115 32.0224 14.2891 31.8595 14.2891 31.6877V31.155C15.4185 31.0768 16.5176 30.7571 17.513 30.2177C17.8548 30.5596 18.2579 30.8344 18.701 31.0279V31.6879V31.6877C18.6931 31.8577 18.7634 32.0222 18.8916 32.1341C19.0169 32.2412 19.1852 32.2833 19.3463 32.2478C19.4225 32.2427 19.5852 32.2478 19.6961 32.2511L19.8331 32.2539H19.8329C20.2288 32.2529 20.5506 32.5729 20.5518 32.9688C20.5528 33.3647 20.2328 33.6865 19.8369 33.6878C19.5372 33.6515 19.2613 33.8558 19.2088 34.1532C18.9471 35.6711 17.8055 36.7711 16.5003 36.7711L16.4976 36.7711Z" fill="#090940"/>
<path d="M19.3955 40.7968L20.5325 40.7935L20.5459 45.2408L19.409 45.2441L19.3955 40.7968Z" fill="#090940"/>
<path d="M16.5006 35.3263C16.112 35.3258 15.7971 35.0109 15.7963 34.6221H15.2278C15.2207 34.9642 15.3514 35.2948 15.591 35.5395C15.8303 35.7839 16.1582 35.9217 16.5003 35.9217C16.8427 35.9217 17.1705 35.7839 17.4099 35.5395C17.6492 35.2949 17.7802 34.9642 17.773 34.6221H17.2046C17.2041 35.0106 16.8894 35.3258 16.5005 35.3263H16.5006Z" fill="#090940"/>
<path d="M34.447 10C31.5832 10.003 28.8377 11.142 26.813 13.167C24.788 15.192 23.649 17.9375 23.646 20.801C23.6366 23.6198 24.7421 26.3279 26.7214 28.3349C26.5676 28.6432 26.4879 28.9833 26.4884 29.3279C26.4864 29.9469 26.7376 30.5397 27.1835 30.9689C27.6297 31.3981 28.2317 31.6262 28.8501 31.6004C29.4684 31.5745 30.0496 31.2971 30.4581 30.8322C31.7264 31.3415 33.0805 31.6029 34.4472 31.6019C37.3119 31.6019 40.0592 30.4639 42.0844 28.4382C44.1101 26.4127 45.2481 23.6655 45.2481 20.801C45.2481 17.9366 44.1101 15.189 42.0844 13.1638C40.0589 11.1381 37.3116 10.0001 34.4472 10.0001L34.447 10ZM34.447 30.4655C33.0829 30.466 31.7342 30.1754 30.4914 29.6128C30.2191 29.4904 29.8988 29.5993 29.7574 29.8622C29.6082 30.146 29.3455 30.3528 29.0349 30.4315C28.724 30.5101 28.3946 30.4533 28.1284 30.2751C27.8619 30.097 27.6837 29.814 27.6378 29.4968C27.5921 29.1796 27.6832 28.858 27.8883 28.6116C28.0779 28.3804 28.0558 28.0416 27.8378 27.8368C25.8826 26.0204 24.7753 23.4698 24.7827 20.8012C24.7827 18.2382 25.8009 15.78 27.6132 13.9677C29.4257 12.1553 31.8839 11.1372 34.4467 11.1372C37.0095 11.1372 39.4679 12.1554 41.2802 13.9677C43.0926 15.7802 44.1107 18.2384 44.1107 20.8012C44.1107 23.364 43.0925 25.8224 41.2802 27.6347C39.4677 29.447 37.0095 30.4652 34.4467 30.4652L34.447 30.4655Z" fill="#090940"/>
<path d="M26.4882 33.0231C26.4882 33.4942 26.1065 33.8759 25.6354 33.8759C25.1644 33.8759 24.7827 33.4942 24.7827 33.0231C24.7827 32.5521 25.1644 32.1704 25.6354 32.1704C26.1065 32.1704 26.4882 32.5521 26.4882 33.0231Z" fill="#090940"/>
<path d="M37.3751 16.4807C36.5848 15.7728 35.5649 15.3749 34.504 15.3607C33.4432 15.3466 32.4128 15.7171 31.604 16.4038C30.7952 17.0903 30.2622 18.0466 30.1036 19.0958C29.9137 20.3338 30.266 21.5936 31.07 22.5539C31.6052 23.197 31.9471 23.979 32.056 24.8086C31.7867 24.8527 31.5885 25.0845 31.5862 25.357V26.8863C31.5862 27.1729 31.7002 27.4475 31.9027 27.65C32.1052 27.8528 32.3801 27.9665 32.6663 27.9665H33.1211C33.1506 28.2581 33.3968 28.4796 33.6896 28.4781H35.2189C35.5121 28.4796 35.758 28.2581 35.7874 27.9665H36.2422C36.5287 27.9665 36.8033 27.8528 37.0059 27.65C37.2087 27.4475 37.3223 27.1729 37.3223 26.8863V25.357C37.3201 25.0829 37.1201 24.8507 36.8493 24.8081C36.9381 23.9993 37.2652 23.2354 37.7891 22.6131C38.5395 21.7423 38.9184 20.6119 38.8441 19.4648C38.7694 18.3177 38.2479 17.2455 37.3911 16.479L37.3751 16.4807ZM36.1717 26.8271H35.2116C34.9195 26.8271 34.6751 27.0482 34.6459 27.3388H34.248C34.2188 27.0482 33.9744 26.8271 33.6823 26.8271H32.7222V25.9272H36.1718L36.1717 26.8271ZM36.914 21.8699H36.9143C36.2161 22.6937 35.789 23.7126 35.6908 24.7879H33.2018C33.0831 23.6997 32.6461 22.6703 31.9456 21.829C31.3502 21.1151 31.0903 20.1799 31.2317 19.2612C31.3421 18.5564 31.6801 17.9072 32.1936 17.4124C32.7072 16.9175 33.3686 16.6038 34.0769 16.5193C34.9492 16.4175 35.8258 16.6728 36.5069 17.2273C37.1881 17.7816 37.6162 18.5879 37.6939 19.4627C37.7716 20.3375 37.4922 21.2065 36.9194 21.8721L36.914 21.8699Z" fill="#090940"/>
<path d="M33.8784 13.1265H35.0154V14.655H33.8784V13.1265Z" fill="#090940"/>
<path d="M37.6494 15.7464L38.7303 14.6655L39.5343 15.4695L38.4534 16.5504L37.6494 15.7464Z" fill="#090940"/>
<path d="M29.3599 15.4688L30.1639 14.665L31.2448 15.7462L30.4408 16.5499L29.3599 15.4688Z" fill="#090940"/>
<path d="M34.4468 17.1455V18.2825C34.8366 18.2827 35.2102 18.4378 35.4858 18.7134C35.7614 18.989 35.9165 19.3626 35.917 19.7524H37.0539C37.0532 19.0613 36.7781 18.3985 36.2895 17.9099C35.8007 17.4211 35.1381 17.1463 34.4468 17.1455L34.4468 17.1455Z" fill="#090940"/>
</svg>
