<svg width="57" height="57" viewBox="0 0 57 57" fill="none" xmlns="http://www.w3.org/2000/svg">
<path d="M28.5 0L53.1817 14.25V42.75L28.5 57L3.81828 42.75V14.25L28.5 0Z" fill="#E0DEDC"/>
<path d="M36.7807 40.8862H35.5742C35.2452 40.8862 35.0259 41.1056 35.0259 41.4346C35.0259 41.7636 35.2452 41.983 35.5742 41.983H36.7807C37.1097 41.983 37.329 41.7636 37.329 41.4346C37.329 41.1056 37.1097 40.8862 36.7807 40.8862Z" fill="#090940"/>
<path d="M44.8964 41.1053L41.6062 36.4441C41.5514 36.3344 41.3868 36.2796 41.2772 36.2248L35.958 35.0184C33.1065 34.4151 30.1453 35.1829 28.0063 37.1022C27.4031 36.5538 26.7451 36.1151 26.087 35.7861C25.8128 35.6764 25.4838 35.7861 25.3741 36.0054C25.2645 36.2796 25.3193 36.6086 25.5935 36.7183C26.3064 37.0473 26.9096 37.5409 27.5128 38.0344V41.9278H25.8677C25.5387 41.9278 25.3193 41.7085 25.3193 41.3794C25.3193 41.0504 25.1 40.8311 24.7709 40.8311H23.1258V39.515H25.8677C26.1967 39.515 26.416 39.2956 26.416 38.9666C26.416 38.6376 26.1967 38.4182 25.8677 38.4182H14.3519L15.1745 37.2667L20.2743 36.1151C21.3162 35.8957 22.3581 35.8957 23.4 36.0603C23.6742 36.1151 24.0032 35.8957 24.0581 35.6216C24.1129 35.3474 23.8935 35.0184 23.6194 34.9635C22.4678 34.7442 21.2614 34.799 20.1098 35.0184L14.7358 36.2248C14.6261 36.2796 14.4616 36.3344 14.4067 36.4441L11.1165 41.1053C10.7875 41.544 11.2262 41.9826 11.5552 41.9278H17.5873V44.4503C17.6421 45.1632 18.3002 44.9987 18.355 44.9438L19.1776 44.56C19.4517 44.4503 19.5614 44.1213 19.3969 43.8471C19.2872 43.5729 18.9582 43.4632 18.684 43.6278V39.515H21.9742V43.5729L20.5485 42.86C20.2743 42.7504 19.9453 42.86 19.8356 43.0794C19.7259 43.3536 19.8356 43.6826 20.055 43.7923L22.2484 44.889C22.7968 45.1084 23.071 44.6697 23.071 44.4503V41.9826H24.2774C24.4967 42.6407 25.1 43.0794 25.8128 43.0794H30.1998C30.9127 43.0794 31.5159 42.6407 31.7352 41.9826H33.49C33.819 41.9826 34.0384 41.7633 34.0384 41.4343C34.0384 41.1053 33.819 40.8859 33.49 40.8859H31.2965C30.9675 40.8859 30.7482 41.1053 30.7482 41.4343C30.7482 41.7633 30.5288 41.9826 30.1998 41.9826H28.5547V38.0892C30.474 36.2796 33.1062 35.5119 35.738 36.0603L40.8379 37.2118L41.6604 38.3634H30.1992C29.8701 38.3634 29.6508 38.5828 29.6508 38.9118C29.6508 39.2408 29.8701 39.4601 30.1992 39.4601L42.4275 39.4053L43.4146 40.8311H38.9728C38.6437 40.8311 38.4244 41.0504 38.4244 41.3794C38.4244 41.7085 38.6437 41.9278 38.9728 41.9278H44.4565C45.1145 41.9278 45.0048 41.2698 44.8952 41.1053H44.8964ZM17.5876 40.8859H12.5974L13.5845 39.4601L17.5876 39.515V40.8859Z" fill="#090940"/>
<path d="M17.0393 34.5251C17.3683 34.5251 17.5876 34.3057 17.5876 33.9767V31.4542C17.5876 27.6156 20.4392 24.5447 24.1681 24.2709V24.8192C24.1681 26.9579 25.868 28.6578 28.0067 28.6578C28.3357 28.6578 28.555 28.4385 28.555 28.1094C28.555 27.7804 28.3357 27.5611 28.0067 27.5611C26.5809 27.5611 25.3745 26.4095 25.2648 24.9837L25.7583 25.4773C26.3615 26.0256 27.1293 26.3547 28.0067 26.3547C28.884 26.3547 29.6518 26.0256 30.255 25.4224L30.7485 24.9289C30.6937 25.6418 30.3646 26.2998 29.8711 26.7934C29.6518 27.0127 29.6518 27.3417 29.8163 27.5611C29.9808 27.7804 30.3646 27.7804 30.584 27.6159C31.4065 26.903 31.8452 25.8611 31.8452 24.7644V24.2709C35.5193 24.5999 38.4257 27.7256 38.4257 31.4542V33.9767C38.4257 34.3057 38.645 34.5251 38.974 34.5251C39.3031 34.5251 39.5224 34.3057 39.5224 33.9767V31.4542C39.5224 27.2866 36.4515 23.8322 32.4481 23.2286C33.49 22.1319 34.0384 20.7061 34.0384 19.1707V17.0321C34.0384 15.716 33.5997 14.4547 32.832 13.4128C32.6675 13.1935 32.2836 13.1386 32.0643 13.3032C31.8449 13.4677 31.7901 13.8515 31.9546 14.0709C32.2288 14.4547 32.4481 14.8386 32.6126 15.2773C32.0643 15.9902 30.9127 16.4837 29.6514 16.4837C28.3902 16.4837 27.2386 15.9902 26.6354 15.1676C26.4709 14.9483 26.1967 14.8934 25.9225 15.0031C25.1 15.5515 23.6194 15.387 23.4 15.3321C24.0581 13.4677 25.8677 12.0967 28.0063 12.0967C28.7192 12.0967 29.3773 12.2613 30.0353 12.5354C30.3095 12.6451 30.6385 12.5354 30.7482 12.2613C30.8579 11.9871 30.7482 11.658 30.474 11.5484C29.7063 11.2193 28.8289 11 28.0063 11C24.6613 11 21.9743 13.687 21.9743 17.0321V19.1707C21.9743 20.7061 22.5226 22.1319 23.5645 23.2286C19.5066 23.8319 16.4903 27.2317 16.4903 31.4542V33.9767C16.4903 34.2509 16.7096 34.5251 17.0386 34.5251H17.0393ZM23.0713 19.1707V17.0321C23.0713 16.8127 23.0713 16.5934 23.1262 16.374C23.4552 16.4289 25.0455 16.5934 26.0325 16.1547C26.8551 17.0321 28.1712 17.5804 29.6518 17.5804C30.913 17.5804 32.1194 17.1966 32.8871 16.5385C32.8871 16.703 32.942 16.8676 32.942 17.0321V19.1707C32.942 20.4868 32.4484 21.6932 31.5162 22.6254L29.4873 24.6544C28.7195 25.4221 27.2938 25.4221 26.5261 24.6544L24.4971 22.6254C23.5649 21.6932 23.0713 20.4868 23.0713 19.1707Z" fill="#090940"/>
<path d="M32.3936 30.7416C32.0646 30.7416 31.8452 30.9609 31.8452 31.2899C31.8452 31.619 32.0646 31.8383 32.3936 31.8383H36.7805C37.1096 31.8383 37.3289 31.619 37.3289 31.2899C37.3289 30.9609 37.1096 30.7416 36.7805 30.7416H32.3936Z" fill="#090940"/>
<path d="M22.3037 25.751C20.494 26.5187 19.178 28.1638 18.7941 30.0831C18.7393 30.3573 18.9586 30.6863 19.2328 30.7412C19.6167 30.7412 19.836 30.5767 19.8908 30.3025C20.165 28.7122 21.2618 27.3961 22.7424 26.7381C23.0166 26.6284 23.1262 26.2994 23.0166 26.0252C22.9069 25.751 22.5779 25.6413 22.3037 25.751Z" fill="#090940"/>
</svg>
