<svg width="57" height="57" viewBox="0 0 57 57" fill="none" xmlns="http://www.w3.org/2000/svg">
<path d="M28.5 0L53.1817 14.25V42.75L28.5 57L3.81828 42.75V14.25L28.5 0Z" fill="#E0DEDC"/>
<path d="M32.0323 34.7021C31.6239 34.7021 31.2925 35.0336 31.2925 35.442C31.2925 36.3373 29.714 37.3349 27.4493 37.3349C25.1846 37.3349 23.6061 36.3373 23.6061 35.442C23.6061 35.0335 23.2747 34.7021 22.8663 34.7021C22.4579 34.7021 22.1265 35.0336 22.1265 35.442C22.1265 37.3334 24.4644 38.8145 27.4494 38.8145C30.4339 38.8145 32.7723 37.333 32.7723 35.442C32.7723 35.0335 32.4409 34.7021 32.0325 34.7021H32.0323Z" fill="#090940"/>
<path d="M27.4494 21.9287C24.5143 21.9287 22.1265 24.3165 22.1265 27.2516C22.1265 30.1867 24.5143 32.5745 27.4494 32.5745C30.3845 32.5745 32.7723 30.1867 32.7723 27.2516C32.7723 24.3165 30.3845 21.9287 27.4494 21.9287V21.9287ZM27.4494 31.0948C25.3303 31.0948 23.6061 29.3706 23.6061 27.2516C23.6061 25.1325 25.3304 23.4084 27.4494 23.4084C29.5683 23.4084 31.2926 25.1326 31.2926 27.2516C31.2926 29.3707 29.5683 31.0948 27.4494 31.0948Z" fill="#090940"/>
<path d="M29.7894 27.2519C29.7894 28.5443 28.7416 29.5921 27.4491 29.5921C26.1567 29.5921 25.1089 28.5443 25.1089 27.2519C25.1089 25.9595 26.1567 24.9116 27.4491 24.9116C28.7416 24.9116 29.7894 25.9595 29.7894 27.2519Z" fill="#090940"/>
<path d="M38.7317 11C37.537 11 36.5651 11.972 36.5651 13.1666C36.5651 13.2025 36.5688 13.2372 36.5703 13.2727C34.0814 14.4983 33.1419 16.806 32.7992 18.1178C31.2282 17.1941 29.3998 16.6634 27.4491 16.6634C25.4988 16.6634 23.6701 17.1941 22.0991 18.1178C21.7563 16.8061 20.8168 14.4983 18.3279 13.2727C18.3295 13.2372 18.3332 13.2025 18.3332 13.1666C18.3332 11.972 17.3612 11 16.1666 11C14.972 11 14 11.972 14 13.1666C14 14.3612 14.972 15.3332 16.1666 15.3332C16.7924 15.3332 17.3556 15.0649 17.7511 14.6391C20.0918 15.8436 20.6643 18.3031 20.7848 19.0297C18.3921 20.9728 16.8604 23.9362 16.8604 27.2515L16.8612 43.3402C16.8612 43.7486 17.1926 44.08 17.601 44.08C18.0094 44.08 18.3408 43.7486 18.3408 43.3402V27.2515C18.3408 22.229 22.4267 18.1427 27.4496 18.1427C32.4721 18.1427 36.5584 22.2286 36.5584 27.2515V43.3402C36.5584 43.7486 36.8898 44.08 37.2982 44.08C37.7067 44.08 38.0381 43.7486 38.0381 43.3402V27.2515C38.0381 23.9362 36.5063 20.9725 34.1137 19.0297C34.2341 18.3035 34.8067 15.8436 37.1473 14.6391C37.5433 15.0649 38.1061 15.3332 38.7319 15.3332C39.9265 15.3332 40.8985 14.3612 40.8985 13.1666C40.8985 11.972 39.9265 11 38.7319 11H38.7317ZM16.8442 13.2813C16.8125 13.3281 16.785 13.3787 16.7638 13.4338C16.7476 13.4761 16.7363 13.5191 16.7284 13.5621C16.6038 13.738 16.3992 13.8535 16.1678 13.8535C15.7889 13.8535 15.4809 13.5455 15.4809 13.1666C15.4809 12.7876 15.7889 12.4796 16.1678 12.4796C16.5468 12.4796 16.8548 12.7876 16.8548 13.1666C16.8544 13.2058 16.8503 13.2439 16.8442 13.2813V13.2813ZM38.7317 13.8535C38.5003 13.8535 38.2953 13.738 38.1711 13.5621C38.1632 13.5191 38.1515 13.4761 38.1357 13.4338C38.1145 13.3787 38.087 13.3281 38.0553 13.2813C38.0488 13.244 38.0447 13.2058 38.0447 13.1666C38.0447 12.7876 38.3527 12.4796 38.7317 12.4796C39.1106 12.4796 39.4186 12.7876 39.4186 13.1666C39.4186 13.5455 39.1106 13.8536 38.7317 13.8536V13.8535Z" fill="#090940"/>
</svg>
