<svg width="57" height="57" viewBox="0 0 57 57" fill="none" xmlns="http://www.w3.org/2000/svg">
<path d="M28.5 0L53.1817 14.25V42.75L28.5 57L3.81828 42.75V14.25L28.5 0Z" fill="#E0DEDC"/>
<path d="M42.9748 15.575H41.3998V14.525C41.3998 14.3858 41.3445 14.2522 41.2461 14.1538C41.1476 14.0553 41.014 14 40.8748 14H31.4248C30.5954 14.0023 29.8161 14.398 29.3248 15.0662C28.8336 14.398 28.0543 14.0024 27.2248 14H17.7748C17.4849 14 17.2498 14.2351 17.2498 14.525V15.575H15.6748C15.3849 15.575 15.1498 15.8101 15.1498 16.1V25.025H16.1998V16.625H17.2498V23.975H18.2998V15.05H27.2248C27.6425 15.05 28.0433 15.2159 28.3385 15.5113C28.6338 15.8066 28.7998 16.2074 28.7998 16.625V23.45H29.8498V16.625C29.8498 16.2073 30.0157 15.8065 30.311 15.5113C30.6064 15.216 31.0072 15.05 31.4248 15.05H40.3498V30.8H37.7248V31.85H40.8748C41.014 31.85 41.1476 31.7947 41.246 31.6963C41.3444 31.5978 41.3998 31.4642 41.3998 31.325V16.625H42.4498V32.9H38.2498V33.95H42.9748C43.114 33.95 43.2476 33.8947 43.346 33.7963C43.4444 33.6978 43.4998 33.5642 43.4998 33.425V16.1C43.4998 15.9608 43.4444 15.8272 43.346 15.7288C43.2476 15.6303 43.114 15.575 42.9748 15.575H42.9748Z" fill="#090940"/>
<path d="M16.7248 41.2998H24.862L27.8545 45.2898C27.9537 45.4219 28.1093 45.4998 28.2745 45.4998H32.4745C33.7273 45.4981 34.9282 44.9998 35.8139 44.1141C36.6995 43.2284 37.1978 42.0275 37.1995 40.7748V34.4748C37.1967 31.8301 36.1448 29.2946 34.2748 27.4248C32.4047 25.5547 29.8692 24.5028 27.2248 24.5H21.9748C19.3301 24.5028 16.7946 25.5547 14.9248 27.4248C13.0547 29.2948 12.0028 31.8303 12 34.4748V36.5748C12.0016 37.8275 12.4999 39.0285 13.3856 39.9141C14.2714 40.7998 15.4723 41.2981 16.725 41.2998H16.7248ZM28.5376 44.4498L26.1751 41.2998H28.5376L30.9001 44.4498H28.5376ZM35.7916 42.3498H30.6377L29.8502 41.2998H36.113C36.0596 41.664 35.9511 42.0179 35.7917 42.3498H35.7916ZM32.2127 44.4498L31.4252 43.3998H35.0398C34.3559 44.0727 33.4348 44.4495 32.4752 44.4498H32.2127ZM13.0499 34.4748C13.0518 34.1237 13.0743 33.7731 13.1172 33.4248H14.6249V32.3748H13.3124C13.701 30.7852 14.5186 29.3326 15.6757 28.1755C16.8328 27.0184 18.2854 26.2009 19.8749 25.8123V28.1748H20.9249V25.617C21.2732 25.5741 21.6238 25.5516 21.9749 25.5498H24.0749V29.2248C24.0749 29.6424 23.909 30.0432 23.6137 30.3385C23.3184 30.6337 22.9176 30.7997 22.5 30.7997H19.35C19.1086 30.8032 18.869 30.8405 18.6382 30.9106C18.0825 30.3085 17.7743 29.5191 17.775 28.6997H16.725C16.7226 29.6878 17.0611 30.6464 17.6831 31.414C17.0794 31.9073 16.7278 32.6449 16.725 33.4247V36.0942C15.9881 36.2034 15.3059 36.5468 14.7787 37.0734L15.521 37.8157H15.5212C15.9799 37.358 16.6017 37.1008 17.2499 37.1008C17.8982 37.1008 18.52 37.358 18.9786 37.8157L19.7209 37.0734H19.7211C19.194 36.5468 18.5118 36.2034 17.7748 36.0942V33.4247C17.7748 33.0071 17.9408 32.6062 18.2361 32.311C18.5314 32.0157 18.9322 31.8497 19.3498 31.8497H19.91C20.0236 32.8093 20.4577 33.7022 21.1421 34.3845L21.3411 34.5835L22.0833 33.8412L21.8843 33.6422L21.8846 33.642C21.398 33.1561 21.0779 32.5287 20.97 31.8497H22.4998C23.1957 31.8488 23.8629 31.572 24.3551 31.0801C24.8471 30.5879 25.1238 29.9206 25.1248 29.2247V25.5497H27.2248C29.1525 25.5504 31.0278 26.1793 32.5662 27.341L31.0538 28.8535L31.796 29.5957L33.371 28.0207V28.021C34.2023 28.8118 34.8738 29.7551 35.3487 30.7997H30.8998C30.4821 30.7997 30.0813 30.6337 29.7861 30.3384C29.4908 30.0431 29.3248 29.6423 29.3248 29.2247V28.1747H28.2748V29.2247C28.2758 29.9206 28.5526 30.5878 29.0445 31.08C29.5367 31.572 30.204 31.8487 30.8998 31.8497H35.7544C36.0169 32.7 36.1503 33.5848 36.1498 34.4747V40.2497H27.7498V38.1497H26.6998V40.2497H23.5498C23.1322 40.2497 22.7314 40.0838 22.4361 39.7885C22.1408 39.4931 21.9749 39.0923 21.9749 38.6747V37.6247C21.9749 37.2071 22.1408 36.8063 22.4361 36.511C22.7314 36.2158 23.1322 36.0498 23.5498 36.0498H30.5998C30.7086 36.7866 31.0517 37.4691 31.5784 37.996L32.3209 37.2535C31.8631 36.7946 31.6063 36.1728 31.6063 35.5248C31.6063 34.8768 31.8631 34.255 32.3209 33.7961L31.5784 33.0536C31.0517 33.5805 30.7086 34.263 30.5998 34.9999H27.2923C26.8946 34.534 26.6869 33.9356 26.7101 33.3234C26.7333 32.7115 26.986 32.1304 27.4177 31.6962L26.6734 30.9537C26.154 31.4747 25.8118 32.1459 25.6958 32.8723C25.5795 33.5986 25.6953 34.3432 26.0265 34.9999H23.5496C22.8537 35.0009 22.1865 35.2777 21.6943 35.7696C21.2023 36.2618 20.9256 36.9291 20.9246 37.6249V38.6749C20.9265 39.2447 21.1159 39.7983 21.4632 40.2499H16.7246C15.7503 40.2488 14.8161 39.8614 14.1273 39.1723C13.4382 38.4835 13.0508 37.5492 13.0496 36.5749L13.0499 34.4748Z" fill="#090940"/>
<path d="M31.4248 17.15H38.7748V18.2H31.4248V17.15Z" fill="#090940"/>
<path d="M31.4248 19.775H35.6248V20.825H31.4248V19.775Z" fill="#090940"/>
<path d="M36.6748 19.775H38.7748V20.825H36.6748V19.775Z" fill="#090940"/>
<path d="M31.4248 22.4H38.7748V23.45H31.4248V22.4Z" fill="#090940"/>
<path d="M34.0498 25.025H38.7748V26.075H34.0498V25.025Z" fill="#090940"/>
<path d="M36.6748 27.65H38.7748V28.7H36.6748V27.65Z" fill="#090940"/>
<path d="M19.875 17.1499H27.225V18.1999H19.875V17.1499Z" fill="#090940"/>
<path d="M19.875 19.7749H25.125V20.8249H19.875V19.7749Z" fill="#090940"/>
<path d="M26.1748 19.775H27.2248V20.825H26.1748V19.775Z" fill="#090940"/>
<path d="M19.875 22.3999H21.975V23.4499H19.875V22.3999Z" fill="#090940"/>
<path d="M23.0249 22.4H27.2249V23.45H23.0249V22.4Z" fill="#090940"/>
</svg>
