<svg width="57" height="57" viewBox="0 0 57 57" fill="none" xmlns="http://www.w3.org/2000/svg">
<path d="M28.5 0L53.1817 14.25V42.75L28.5 57L3.81828 42.75V14.25L28.5 0Z" fill="#E0DEDC"/>
<path d="M44 16.6603C44 15.1934 42.8065 14 41.3398 14H40.0739C39.4487 14 38.94 14.5087 38.94 15.1339V16.4898L13.5118 16.49C12.6783 16.49 12 17.1683 12 18.0018V39.8236C12 40.6571 12.6783 41.3354 13.5118 41.3354H41.3393C42.7784 41.3354 43.9717 40.1651 43.9991 38.7268C43.9994 38.7147 43.9989 38.7025 43.9989 38.6902C43.9989 38.685 43.9996 38.68 43.9996 38.6751L44 16.6603ZM39.9479 15.1338C39.9479 15.0643 40.0043 15.0078 40.0738 15.0078H41.3397C42.2508 15.0078 42.9921 15.7491 42.9921 16.6602V36.6108C42.5125 36.229 41.9109 36.0142 41.2972 36.0142H40.0738C40.0043 36.0142 39.9478 35.9577 39.9478 35.8882L39.9479 15.1338ZM41.3398 40.3276H13.5123C13.2344 40.3276 13.0083 40.1015 13.0083 39.8237V18.0019C13.0083 17.7241 13.2344 17.498 13.5123 17.498H38.9404V35.889C38.9404 36.5141 39.4491 37.0228 40.0743 37.0228H41.2977C41.753 37.0228 42.1985 37.2107 42.52 37.5385C42.8329 37.8575 43.0008 38.2728 42.9924 38.7077C42.9753 39.6008 42.234 40.3277 41.3402 40.3277L41.3398 40.3276Z" fill="#090940"/>
<path d="M27.2822 26.7594H26.1899V23.5113C26.1899 23.2335 26.416 23.0074 26.6939 23.0074H32.7508C33.0287 23.0074 33.2548 23.2335 33.2548 23.5113V23.7828C33.0582 23.6875 32.8145 23.7284 32.6609 23.8992C32.4746 24.1059 32.4915 24.4247 32.6985 24.6107L33.4218 25.2618C33.5176 25.348 33.6382 25.3911 33.7588 25.3911C33.8794 25.3911 34.0002 25.348 34.0958 25.2618L34.8191 24.6107C35.0261 24.4244 35.0427 24.1059 34.8566 23.8992C34.703 23.7284 34.4596 23.6875 34.2628 23.7828V23.5113C34.2628 22.6778 33.5845 21.9995 32.751 21.9995H26.694C25.8604 21.9995 25.1822 22.6778 25.1822 23.5113V26.7594H24.0899C23.2564 26.7594 22.5781 27.4377 22.5781 28.2712V29.554C22.5781 30.3875 23.2564 31.0658 24.0899 31.0658H27.2823C28.1158 31.0658 28.7941 30.3875 28.7941 29.554V28.2712C28.7941 27.4374 28.1158 26.7594 27.2823 26.7594H27.2822ZM27.7861 29.554C27.7861 29.8318 27.56 30.0579 27.2822 30.0579H24.0898C23.812 30.0579 23.5859 29.8318 23.5859 29.554V28.2712C23.5859 27.9934 23.812 27.7673 24.0898 27.7673H27.2822C27.56 27.7673 27.7861 27.9934 27.7861 28.2712V29.554Z" fill="#090940"/>
<path d="M35.355 26.7593H32.1627C31.3291 26.7593 30.6509 27.4375 30.6509 28.2711V29.5538C30.6509 30.3874 31.3291 31.0656 32.1627 31.0656H35.355C36.1886 31.0656 36.8668 30.3874 36.8668 29.5538V28.2711C36.8668 27.4373 36.1886 26.7593 35.355 26.7593ZM35.859 29.5538C35.859 29.8317 35.6329 30.0578 35.355 30.0578H32.1627C31.8848 30.0578 31.6587 29.8317 31.6587 29.5538V28.2711C31.6587 27.9932 31.8848 27.7671 32.1627 27.7671H35.355C35.6329 27.7671 35.859 27.9932 35.859 28.2711V29.5538Z" fill="#090940"/>
<path d="M26.7467 33.1513L26.0234 32.5003C25.8317 32.3277 25.5408 32.3277 25.3491 32.5003L24.6258 33.1513C24.4191 33.3376 24.4022 33.6562 24.5885 33.8629C24.7421 34.0336 24.9858 34.0746 25.1824 33.9792V34.3137C25.1824 34.5916 24.9563 34.8177 24.6784 34.8177H18.6214C18.3436 34.8177 18.1175 34.5916 18.1175 34.3137V31.0656H19.2098C20.0433 31.0656 20.7216 30.3874 20.7216 29.5538V28.2711C20.7216 27.4375 20.0433 26.7593 19.2098 26.7593H16.0172C15.1836 26.7593 14.5054 27.4375 14.5054 28.2711V29.5538C14.5054 30.3874 15.1836 31.0656 16.0172 31.0656H17.1094V34.3137C17.1094 35.1473 17.7877 35.8255 18.6212 35.8255H24.6782C25.5117 35.8255 26.19 35.1473 26.19 34.3137V33.9796C26.2593 34.0132 26.3342 34.0298 26.4091 34.0298C26.547 34.0298 26.6843 33.9736 26.7839 33.8629C26.9702 33.6561 26.9533 33.3374 26.7466 33.1513H26.7467ZM15.5133 29.5538V28.2711C15.5133 27.9932 15.7394 27.7671 16.0172 27.7671H19.2095C19.4874 27.7671 19.7135 27.9932 19.7135 28.2711V29.5538C19.7135 29.8317 19.4874 30.0578 19.2095 30.0578H16.0172C15.7394 30.0578 15.5133 29.8317 15.5133 29.5538Z" fill="#090940"/>
<path d="M15.0093 23.0074H20.2174C20.4957 23.0074 20.7213 22.7817 20.7213 22.5034C20.7213 22.2252 20.4957 21.9995 20.2174 21.9995H15.0093C14.731 21.9995 14.5054 22.2252 14.5054 22.5034C14.5054 22.7817 14.731 23.0074 15.0093 23.0074Z" fill="#090940"/>
<path d="M15.0093 25.1807H18.1994C18.4777 25.1807 18.7033 24.9551 18.7033 24.6768C18.7033 24.3985 18.4777 24.1729 18.1994 24.1729H15.0093C14.731 24.1729 14.5054 24.3985 14.5054 24.6768C14.5054 24.9551 14.731 25.1807 15.0093 25.1807Z" fill="#090940"/>
</svg>
