<svg width="32" height="31" viewBox="0 0 32 31" fill="none" xmlns="http://www.w3.org/2000/svg">
<path fill-rule="evenodd" clip-rule="evenodd" d="M22.2918 20.4249L30.6118 28.7449C31.1287 29.2616 31.1333 30.0949 30.6143 30.614C30.0987 31.1295 29.2623 31.1286 28.7452 30.6115L20.4252 22.2915C18.2713 24.0353 15.5278 25.0799 12.5402 25.0799C5.61417 25.0799 0 19.4656 0 12.5402C0 5.61417 5.61428 0 12.5402 0C19.4657 0 25.0799 5.61428 25.0799 12.5402C25.0799 15.5275 24.0353 18.2709 22.2915 20.4252L22.2918 20.4249ZM12.54 22.4403C18.0075 22.4403 22.44 18.0078 22.44 12.5402C22.44 7.07247 18.0075 2.6402 12.54 2.6402C7.07225 2.6402 2.63997 7.07247 2.63997 12.5402C2.63997 18.0078 7.07225 22.4403 12.54 22.4403Z" fill="#090940"/>
</svg>
