<svg width="32" height="37" viewBox="0 0 32 37" fill="none" xmlns="http://www.w3.org/2000/svg">
<path d="M0 9.25V27.75L15.6 37L31.2 27.75V9.25L15.6 0L0 9.25Z" fill="#FBC5B4"/>
<path d="M15.834 10C13.4911 10 11.244 10.9308 9.58742 12.5874C7.93077 14.2442 7 16.4911 7 18.834C7 21.1768 7.93077 23.424 9.58742 25.0805C11.2442 26.7372 13.4911 27.668 15.834 27.668C18.1768 27.668 20.424 26.7372 22.0805 25.0805C23.7372 23.4238 24.668 21.1768 24.668 18.834C24.6651 16.4919 23.7336 14.2464 22.0774 12.5905C20.4213 10.9344 18.1758 10.0028 15.834 10ZM15.834 26.0619C13.9171 26.0619 12.0786 25.3004 10.7232 23.9449C9.36773 22.5895 8.60623 20.751 8.60623 18.8342C8.60623 16.9173 9.36773 15.0788 10.7232 13.7234C12.0787 12.3679 13.9171 11.6064 15.834 11.6064C17.7508 11.6064 19.5894 12.3679 20.9447 13.7234C22.3002 15.0789 23.0617 16.9173 23.0617 18.8342C23.0595 20.7505 22.2971 22.5875 20.9422 23.9425C19.5873 25.2975 17.7502 26.0598 15.8338 26.0621L15.834 26.0619Z" fill="#090940"/>
<path d="M16.637 18.5018V14.0157C16.637 13.7288 16.484 13.4637 16.2355 13.3202C15.9871 13.1768 15.6808 13.1768 15.4323 13.3202C15.1839 13.4637 15.0309 13.7288 15.0309 14.0157V18.8343C15.0309 19.0472 15.1156 19.2515 15.2662 19.402L17.6754 21.8113C17.8794 22.0084 18.1722 22.0832 18.4457 22.0081C18.7191 21.9333 18.9329 21.7195 19.0078 21.446C19.0828 21.1726 19.0081 20.8797 18.811 20.6758L16.637 18.5018Z" fill="#090940"/>
</svg>
