<svg width="1512" height="82" viewBox="0 0 1512 82" fill="none" xmlns="http://www.w3.org/2000/svg">
<path d="M136.68 33.4H126.56V34.98H134.34L126.16 45.66V47H136.68V45.42H128.5L136.68 34.74V33.4ZM145.991 37.24H141.351L139.291 39.3V44.94L141.351 47H145.991L148.051 44.94V39.3L145.991 37.24ZM145.251 45.5H142.091L140.971 44.38V39.86L142.091 38.74H145.251L146.371 39.86V44.38L145.251 45.5ZM157.553 37.24H152.913L150.853 39.3V44.94L152.913 47H157.853L159.613 45.24L158.513 44.14L157.133 45.52H153.673L152.533 44.38V42.72H159.613V39.3L157.553 37.24ZM152.533 41.26V39.86L153.673 38.72H156.793L157.933 39.86V41.26H152.533ZM171.199 47L166.239 41.98L170.899 37.24H168.759L164.319 41.78V32.6H162.639V47H164.319V42.32L168.919 47H171.199ZM185.014 37.24H180.374L178.314 39.3V44.94L180.374 47H185.014L187.074 44.94V39.3L185.014 37.24ZM184.274 45.5H181.114L179.994 44.38V39.86L181.114 38.74H184.274L185.394 39.86V44.38L184.274 45.5ZM196.817 37.24H193.697L191.837 39.1L191.757 37.24H190.237V51.2H191.917V47H196.157L198.877 44.28V39.3L196.817 37.24ZM195.477 45.5H191.917V40.6L193.777 38.74H195.997L197.197 39.94V43.78L195.477 45.5ZM209.55 45.5L208.73 44.68V32.6H207.05V45.24L208.81 47H210.77V45.5H209.55ZM219.604 37.24H214.964L212.904 39.3V44.94L214.964 47H219.904L221.664 45.24L220.564 44.14L219.184 45.52H215.724L214.584 44.38V42.72H221.664V39.3L219.604 37.24ZM214.584 41.26V39.86L215.724 38.72H218.844L219.984 39.86V41.26H214.584ZM231.03 37.24H226.39L224.33 39.3V44.94L226.39 47H231.33L233.09 45.24L231.99 44.14L230.61 45.52H227.15L226.01 44.38V42.72H233.09V39.3L231.03 37.24ZM226.01 41.26V39.86L227.15 38.72H230.27L231.41 39.86V41.26H226.01ZM239.775 37.24L237.715 39.3L237.635 37.24H236.115V47H237.795V40.8L239.675 38.92H241.795V37.24H239.775ZM250.604 32.6V37.24H246.364L243.644 39.96V44.94L245.704 47H248.824L250.684 45.14L250.764 47H252.284V32.6H250.604ZM248.744 45.5H246.524L245.324 44.3V40.46L247.044 38.74H250.604V43.64L248.744 45.5ZM262.143 37.24H257.503L255.443 39.3V44.94L257.503 47H262.143L264.203 44.94V39.3L262.143 37.24ZM261.403 45.5H258.243L257.123 44.38V39.86L258.243 38.74H261.403L262.523 39.86V44.38L261.403 45.5ZM273.705 37.24H269.065L267.005 39.3V44.94L269.065 47H274.005L275.765 45.24L274.665 44.14L273.285 45.52H269.825L268.685 44.38V42.72H275.765V39.3L273.705 37.24ZM268.685 41.26V39.86L269.825 38.72H272.945L274.085 39.86V41.26H268.685ZM281.151 45.5L280.331 44.68V32.6H278.651V45.24L280.411 47H282.371V45.5H281.151ZM291.205 37.24H286.565L284.505 39.3V44.94L286.565 47H291.505L293.265 45.24L292.165 44.14L290.785 45.52H287.325L286.185 44.38V42.72H293.265V39.3L291.205 37.24ZM286.185 41.26V39.86L287.325 38.72H290.445L291.585 39.86V41.26H286.185ZM302.991 37.24H299.751L297.891 39.1L297.811 37.24H296.291V47H297.971V40.6L299.831 38.74H302.171L303.031 39.6V47H304.711V38.96L302.991 37.24ZM308.228 44.96V47H308.888L307.788 49.74H308.668L310.268 46.62V44.96H308.228ZM325.502 37.24H320.862L318.802 39.3V44.94L320.862 47H325.502L327.562 44.94V39.3L325.502 37.24ZM324.762 45.5H321.602L320.482 44.38V39.86L321.602 38.74H324.762L325.882 39.86V44.38L324.762 45.5ZM337.425 37.24H334.185L332.325 39.1L332.245 37.24H330.725V47H332.405V40.6L334.265 38.74H336.605L337.465 39.6V47H339.145V38.96L337.425 37.24ZM349.042 32.6V37.24H344.802L342.082 39.96V44.94L344.142 47H347.262L349.122 45.14L349.202 47H350.722V32.6H349.042ZM347.182 45.5H344.962L343.762 44.3V40.46L345.482 38.74H349.042V43.64L347.182 45.5ZM360.58 37.24H355.94L353.88 39.3V44.94L355.94 47H360.88L362.64 45.24L361.54 44.14L360.16 45.52H356.7L355.56 44.38V42.72H362.64V39.3L360.58 37.24ZM355.56 41.26V39.86L356.7 38.72H359.82L360.96 39.86V41.26H355.56ZM369.326 37.24L367.266 39.3L367.186 37.24H365.666V47H367.346V40.8L369.226 38.92H371.346V37.24H369.326ZM386.01 37.24L383.55 44.68L381.01 37.24H379.59L377.05 44.68L374.59 37.24H372.83L376.17 47H377.77L380.27 39.7L382.75 47H384.35L387.69 37.24H386.01ZM396.518 37.24H391.878L389.818 39.3V44.94L391.878 47H396.818L398.578 45.24L397.478 44.14L396.098 45.52H392.638L391.498 44.38V42.72H398.578V39.3L396.518 37.24ZM391.498 41.26V39.86L392.638 38.72H395.758L396.898 39.86V41.26H391.498ZM405.264 37.24L403.204 39.3L403.124 37.24H401.604V47H403.284V40.8L405.164 38.92H407.284V37.24H405.264ZM416.367 37.24H413.247L411.387 39.1L411.307 37.24H409.787V51.2H411.467V47H415.707L418.427 44.28V39.3L416.367 37.24ZM415.027 45.5H411.467V40.6L413.327 38.74H415.547L416.747 39.94V43.78L415.027 45.5ZM427.846 37.24H423.206L421.146 39.3V44.94L423.206 47H428.146L429.906 45.24L428.806 44.14L427.426 45.52H423.966L422.826 44.38V42.72H429.906V39.3L427.846 37.24ZM422.826 41.26V39.86L423.966 38.72H427.086L428.226 39.86V41.26H422.826ZM439.632 37.24H436.392L434.532 39.1L434.452 37.24H432.932V47H434.612V40.6L436.472 38.74H438.812L439.672 39.6V47H441.352V38.96L439.632 37.24ZM456.303 37.24H451.663L449.603 39.3V44.94L451.663 47H456.303L458.363 44.94V39.3L456.303 37.24ZM455.563 45.5H452.403L451.283 44.38V39.86L452.403 38.74H455.563L456.683 39.86V44.38L455.563 45.5ZM465.586 34.1H467.826V32.6H464.846L462.966 34.48V37.24H460.506V38.74H462.966V47H464.646V38.74H467.826V37.24H464.646V35.04L465.586 34.1ZM482.029 41.46L477.389 41.14L476.809 40.56V39.46L477.549 38.72H481.009L482.129 39.84L483.229 38.74L481.729 37.24H476.789L475.129 38.9V41.12L476.589 42.58L481.229 42.9L481.809 43.48V44.78L481.069 45.52H477.089L475.889 44.32L474.789 45.42L476.369 47H481.829L483.489 45.34V42.92L482.029 41.46ZM492.513 38.74V37.24H489.333V33.4H488.053L487.753 37.24H485.193V38.74H487.653V45.12L489.533 47H492.513V45.5H490.353L489.333 44.48V38.74H492.513ZM501.876 37.24V43.64L500.016 45.5H497.676L496.816 44.64V37.24H495.136V45.28L496.856 47H500.096L501.956 45.14L502.036 47H503.556V37.24H501.876ZM513.593 32.6V37.24H509.353L506.632 39.96V44.94L508.693 47H511.813L513.673 45.14L513.753 47H515.273V32.6H513.593ZM511.733 45.5H509.513L508.313 44.3V40.46L510.033 38.74H513.593V43.64L511.733 45.5ZM518.791 34.94H520.471V32.76H518.791V34.94ZM518.791 47H520.471V37.24H518.791V47ZM530.327 37.24H525.687L523.627 39.3V44.94L525.687 47H530.627L532.387 45.24L531.287 44.14L529.907 45.52H526.447L525.307 44.38V42.72H532.387V39.3L530.327 37.24ZM525.307 41.26V39.86L526.447 38.72H529.567L530.707 39.86V41.26H525.307Z" fill="#6A6A6A"/>
<line x1="4.37114e-08" y1="0.5" x2="1512" y2="0.500132" stroke="#DFDFDF"/>
<line x1="4.37114e-08" y1="81.5" x2="1512" y2="81.5001" stroke="#DFDFDF"/>
<path fill-rule="evenodd" clip-rule="evenodd" d="M96.2918 45.4249L104.612 53.7449C105.129 54.2616 105.133 55.0949 104.614 55.614C104.099 56.1295 103.262 56.1286 102.745 55.6115L94.4252 47.2915C92.2713 49.0353 89.5278 50.0799 86.5402 50.0799C79.6142 50.0799 74 44.4656 74 37.5402C74 30.6142 79.6143 25 86.5402 25C93.4657 25 99.0799 30.6143 99.0799 37.5402C99.0799 40.5275 98.0353 43.2709 96.2915 45.4252L96.2918 45.4249ZM86.54 47.4403C92.0075 47.4403 96.44 43.0078 96.44 37.5402C96.44 32.0725 92.0075 27.6402 86.54 27.6402C81.0722 27.6402 76.64 32.0725 76.64 37.5402C76.64 43.0078 81.0722 47.4403 86.54 47.4403Z" fill="#090940"/>
</svg>
