<svg width="44" height="42" viewBox="0 0 44 42" fill="none" xmlns="http://www.w3.org/2000/svg">
<g clip-path="url(#clip0_1_3)">
<path d="M14.8406 29.3592V37.5795L22.0247 41.6897L29.2088 37.5795V29.3592L22.0247 25.2435L14.8406 29.3592Z" fill="#FEB51E" stroke="white" stroke-miterlimit="10"/>
<path d="M29.3626 4.42591V12.6463L36.5467 16.7564L43.7254 12.6463V4.42591L36.5467 0.315735L29.3626 4.42591Z" fill="#FEB51E" stroke="white" stroke-miterlimit="10"/>
<path d="M14.8406 4.42591V12.6463L22.0247 16.7564L29.2088 12.6463V4.42591L22.0247 0.315735L14.8406 4.42591Z" fill="#FEB51E" stroke="white" stroke-miterlimit="10"/>
<path d="M0.274628 4.42591V12.6463L7.45875 16.7564L14.6429 12.6463V4.42591L7.45875 0.315735L0.274628 4.42591Z" fill="#FEB51E" stroke="white" stroke-miterlimit="10"/>
<path d="M22.1126 16.8817V25.1075L29.2967 29.2176L36.4808 25.1075V16.8817L29.2967 12.7715L22.1126 16.8817Z" fill="#FEB51E" stroke="white" stroke-miterlimit="10"/>
<path d="M7.61253 16.8817V25.1075L14.7967 29.2176L21.9808 25.1075V16.8817L14.7967 12.7715L7.61253 16.8817Z" fill="#FEB51E" stroke="white" stroke-miterlimit="10"/>
<path d="M10.0622 5.91211L8.27163 10.8225H6.64038L4.84984 5.91211H6.62939L7.4972 8.81373L8.35951 5.91211H10.0622Z" fill="#41014A"/>
<path d="M16.9112 18.7271V23.3926H15.6645V21.5743H14.0167V23.3926H12.7699V18.7271H14.0167V20.4746H15.6645V18.7271H16.9112Z" fill="#41014A"/>
<path d="M31.4223 21.4763V22.5379L30.6259 23.3273H27.303V18.6618H30.4886L31.285 19.4512V20.4964L30.8621 20.9156L31.4223 21.4763ZM28.5497 20.5073H29.835L30.0382 20.3059V19.8812L29.8844 19.7288H28.5497V20.5019V20.5073ZM30.1755 22.1078V21.7322L29.9174 21.4763H28.5443V22.2602H30.0162L30.17 22.1078H30.1755Z" fill="#41014A"/>
<path d="M24.3096 32.0594V34.8739L23.3759 35.7993H20.9812L20.0474 34.8739V32.0594L20.9812 31.1339H23.3759L24.3096 32.0594ZM23.0628 34.4111V32.5166L22.7717 32.2281H21.5798L21.2887 32.5166V34.4111L21.5798 34.6997H22.7717L23.0628 34.4111Z" fill="#41014A"/>
<path d="M37.2608 8.07879V9.95151L37.6343 10.3217H38.5625V11.6555H36.6346L35.5746 10.6048V8.07335H34.564V6.73958H35.6735L35.9096 4.98663H37.2553V6.73958H38.5625V8.07335H37.2553L37.2608 8.07879Z" fill="#41014A"/>
</g>
<defs>
<clipPath id="clip0_1_3">
<rect width="44" height="42" fill="white"/>
</clipPath>
</defs>
</svg>
